<?xml version="1.0" encoding="UTF-8" standalone="no"?>
<svg width="64px" height="64px" viewBox="0 0 64 64" version="1.1" xmlns="http://www.w3.org/2000/svg" xmlns:xlink="http://www.w3.org/1999/xlink" xmlns:sketch="http://www.bohemiancoding.com/sketch/ns">
    <!-- Generator: Sketch 3.3.3 (12081) - http://www.bohemiancoding.com/sketch -->
    <title>Oval 4</title>
    <desc>Created with Sketch.</desc>
    <defs></defs>
    <g id="Page-1" stroke="none" stroke-width="1" fill="none" fill-rule="evenodd" sketch:type="MSPage">
        <path d="M32,64 C49.673112,64 64,49.673112 64,32 C64,14.326888 49.673112,0 32,0 C14.326888,0 0,14.326888 0,32 C0,49.673112 14.326888,64 32,64 Z M47.8504673,44.5607477 C54.7875767,44.5607477 60.411215,38.9371094 60.411215,32 C60.411215,25.0628906 54.7875767,19.4392523 47.8504673,19.4392523 C40.9133579,19.4392523 35.2897196,25.0628906 35.2897196,32 C35.2897196,38.9371094 40.9133579,44.5607477 47.8504673,44.5607477 Z M23.3271028,30.5046729 C30.2642122,30.5046729 35.8878505,24.8810346 35.8878505,17.9439252 C35.8878505,11.0068159 30.2642122,5.38317757 23.3271028,5.38317757 C16.3899934,5.38317757 10.7663551,11.0068159 10.7663551,17.9439252 C10.7663551,24.8810346 16.3899934,30.5046729 23.3271028,30.5046729 Z M23.0280374,58.6168224 C29.9651468,58.6168224 35.588785,52.9931841 35.588785,46.0560748 C35.588785,39.1189654 29.9651468,33.4953271 23.0280374,33.4953271 C16.090928,33.4953271 10.4672897,39.1189654 10.4672897,46.0560748 C10.4672897,52.9931841 16.090928,58.6168224 23.0280374,58.6168224 Z M53.2924776,36.4997089 C51.3470815,34.3346714 50.3743835,32.357898 50.2174967,29.9732189 L52.7590626,29.9732189 L52.7590626,27.9650682 L51.2843268,27.4944078 C51.7549872,26.8354834 52.006006,26.0196721 52.006006,25.2038609 C52.006006,23.0702007 50.3116288,21.5327103 47.9583271,21.5327103 C45.6050253,21.5327103 43.9106481,23.0702007 43.9106481,25.2038609 C43.9106481,26.0510495 44.161667,26.8354834 44.6323273,27.4944078 L43.1889689,27.9650682 L43.1889689,29.9732189 L45.7305348,29.9732189 C45.5422706,32.3265206 44.6009499,34.303294 42.6555539,36.4997089 L42.4672897,36.7193504 L42.4672897,40.6728972 L53.5121191,40.6728972 L53.5121191,36.687973 L53.2924776,36.4997089 Z M28.7691132,22.4436341 C26.8237171,20.2785966 25.851019,18.3018232 25.6941322,15.9171442 L28.2356981,15.9171442 L28.2356981,13.9089934 L26.7609623,13.4383331 C27.2316227,12.7794086 27.4826415,11.9635974 27.4826415,11.1477861 C27.4826415,9.01412594 25.7882643,7.47663551 23.4349626,7.47663551 C21.0816609,7.47663551 19.3872836,9.01412594 19.3872836,11.1477861 C19.3872836,11.9949747 19.6383025,12.7794086 20.1089628,13.4383331 L18.6656044,13.9089934 L18.6656044,15.9171442 L21.2071703,15.9171442 C21.0189061,18.2704458 20.0775855,20.2472192 18.1321894,22.4436341 L17.9439252,22.6632756 L17.9439252,26.6168224 L28.9887546,26.6168224 L28.9887546,22.6318983 L28.7691132,22.4436341 Z M28.4700477,50.5557837 C26.5246516,48.3907461 25.5519536,46.4139727 25.3950668,44.0292937 L27.9366327,44.0292937 L27.9366327,42.0211429 L26.4618969,41.5504826 C26.9325573,40.8915581 27.1835761,40.0757469 27.1835761,39.2599357 C27.1835761,37.1262755 25.4891989,35.588785 23.1358972,35.588785 C20.7825954,35.588785 19.0882182,37.1262755 19.0882182,39.2599357 C19.0882182,40.1071243 19.3392371,40.8915581 19.8098974,41.5504826 L18.366539,42.0211429 L18.366539,44.0292937 L20.9081049,44.0292937 C20.7198407,46.3825954 19.77852,48.3593688 17.833124,50.5557837 L17.6448598,50.7754252 L17.6448598,54.728972 L28.6896892,54.728972 L28.6896892,50.7440478 L28.4700477,50.5557837 Z" id="Oval-4" fill="#000000" sketch:type="MSShapeGroup"></path>
    </g>
</svg>