<?xml version="1.0" encoding="UTF-8" standalone="no"?>
<svg width="64px" height="64px" viewBox="0 0 64 64" version="1.1" xmlns="http://www.w3.org/2000/svg" xmlns:xlink="http://www.w3.org/1999/xlink" xmlns:sketch="http://www.bohemiancoding.com/sketch/ns">
    <!-- Generator: Sketch 3.3.3 (12081) - http://www.bohemiancoding.com/sketch -->
    <title>Shape Copy</title>
    <desc>Created with Sketch.</desc>
    <defs></defs>
    <g id="Page-1" stroke="none" stroke-width="1" fill="none" fill-rule="evenodd" sketch:type="MSPage">
        <path d="M43.2864059,19.3571166 L43.2864059,17.2216835 L39.7965304,16.1079018 C40.9103204,14.5486074 41.5043418,12.6180524 41.5043418,10.6874974 C41.5043418,5.63835363 37.4946976,2 31.9257473,2 C26.3567971,2 22.3471529,5.63835363 22.3471529,10.6874974 C22.3471529,12.6923045 22.9411742,14.5486074 24.0549643,16.1079018 L20.6393414,17.2216835 L20.6393414,19.443904 C18.9369548,17.4257915 16.2285701,16.1985416 12.9942173,16.1985416 C7.42526703,16.1985416 3.41562283,19.8368952 3.41562283,24.886039 C3.41562283,26.8908461 4.0096442,28.747149 5.12343425,30.3064434 L1.70781142,31.4202251 L1.70781142,36.1723605 L7.72227771,36.1723605 C7.27676169,41.7412691 5.04918158,46.4191523 0.445516022,51.6168004 L0,52.1365652 L0,61.4923317 L26.13694,61.4923317 L26.13694,52.0623131 L25.6171713,51.6168004 C24.2994586,50.1503247 23.1703312,48.7203492 22.2210828,47.2937901 L22.2210828,47.2937901 L41.6617088,47.2937901 C40.7255791,48.7144692 39.6123659,50.1447906 38.3085761,51.6168004 L37.86306,52.1365652 L37.86306,61.4923317 L64,61.4923317 L64,52.0623131 L63.4802313,51.6168004 C58.8765657,46.4934045 56.574733,41.8155212 56.2034696,36.1723605 L62.2179359,36.1723605 L62.2179359,31.4202251 L58.7280604,30.3064434 C59.8418505,28.747149 60.4358718,26.816594 60.4358718,24.886039 C60.4358718,19.8368952 56.4262276,16.1985416 50.8572774,16.1985416 C47.6695523,16.1985416 44.9927395,17.3906615 43.2864059,19.3571166 Z M41.7645168,21.9738189 L37.2719396,21.9738189 C37.4916012,25.3126497 38.3870802,28.3135743 40.0352716,31.2687914 L42.9864943,30.3064434 C41.8727042,28.747149 41.2786829,26.8908461 41.2786829,24.886039 C41.2786829,23.849406 41.447696,22.8722401 41.7645168,21.9738189 Z M43.4676502,36.1723605 C43.8128124,36.5852051 44.1730956,37.0002491 44.5487013,37.4182588 L45.06847,37.8637715 L45.06847,39.5540373 C45.3219068,38.4570492 45.4923985,37.3340928 45.5853378,36.1723605 L43.4676502,36.1723605 Z M18.93153,40.0282521 C18.6235139,38.7844164 18.4281047,37.5053167 18.3404096,36.1723605 L20.4429771,36.1723605 C20.1028586,36.5847822 19.7476516,36.9998363 19.377046,37.4182588 L18.93153,37.9380236 L18.93153,40.0282521 L18.93153,40.0282521 Z M23.8449947,31.2574983 L20.8650004,30.3064434 C21.9787904,28.747149 22.5728118,26.816594 22.5728118,24.886039 C22.5728118,23.849406 22.4037986,22.8722401 22.0869778,21.9738189 L26.6538077,21.9738189 C26.3889529,25.2844794 25.4942839,28.2802351 23.8449947,31.2574983 L23.8449947,31.2574983 Z" id="Shape-Copy" fill="#000000" sketch:type="MSShapeGroup"></path>
    </g>
</svg>