<?xml version="1.0" encoding="UTF-8" standalone="no"?>
<svg width="93px" height="23px" viewBox="0 0 93 23" version="1.1" xmlns="http://www.w3.org/2000/svg" xmlns:xlink="http://www.w3.org/1999/xlink" xmlns:sketch="http://www.bohemiancoding.com/sketch/ns">
    <!-- Generator: Sketch 3.3.3 (12081) - http://www.bohemiancoding.com/sketch -->
    <title>Resorcery</title>
    <desc>Created with Sketch.</desc>
    <defs></defs>
    <g id="Page-1" stroke="none" stroke-width="1" fill="none" fill-rule="evenodd" sketch:type="MSPage">
        <path d="M2.8,17 L2.8,10.64 L4.768,10.64 C5.3280028,10.64 5.7679984,10.6160002 6.088,10.568 L9.64,17 L12.544,17 L8.488,9.896 C9.33600424,9.51199808 10.0159974,8.95200368 10.528,8.216 C11.0400026,7.47999632 11.296,6.60800504 11.296,5.6 C11.296,3.96799184 10.7120058,2.74000412 9.544,1.916 C8.37599416,1.09199588 6.85600936,0.68 4.984,0.68 L0.112,0.68 L0.112,17 L2.8,17 Z M8.464,5.72 C8.464,6.66400472 8.13600328,7.35199784 7.48,7.784 C6.82399672,8.21600216 5.96000536,8.432 4.888,8.432 L2.8,8.432 L2.8,2.936 L4.936,2.936 C6.07200568,2.936 6.94399696,3.15199784 7.552,3.584 C8.16000304,4.01600216 8.464,4.72799504 8.464,5.72 Z M22.032,6.752 C21.1519956,5.61599432 19.8560086,5.048 18.144,5.048 C16.9759942,5.048 15.9640043,5.30399744 15.108,5.816 C14.2519957,6.32800256 13.5960023,7.0439954 13.14,7.964 C12.6839977,8.8840046 12.456,9.95199392 12.456,11.168 C12.456,13.0560094 13.0119944,14.5479945 14.124,15.644 C15.2360056,16.7400055 16.8479894,17.288 18.96,17.288 C20.5280078,17.288 21.9599935,16.8400045 23.256,15.944 L22.44,13.976 C21.7519966,14.3280018 21.1640024,14.5879992 20.676,14.756 C20.1879976,14.9240008 19.6320031,15.008 19.008,15.008 C16.7679888,15.008 15.5280012,13.9680104 15.288,11.888 L23.352,11.888 L23.352,11.096 C23.352,9.3359912 22.9120044,7.88800568 22.032,6.752 L22.032,6.752 Z M16.212,8.072 C16.6840024,7.5919976 17.3039962,7.352 18.072,7.352 C18.8240038,7.352 19.4239978,7.58399768 19.872,8.048 C20.3200022,8.51200232 20.6159993,9.19199552 20.76,10.088 L15.336,10.088 C15.4480006,9.22399568 15.7399976,8.5520024 16.212,8.072 L16.212,8.072 Z M25.628,17.012 C26.4040039,17.212001 27.0799971,17.312 27.656,17.312 C29.2080078,17.312 30.3959959,17.0000031 31.22,16.376 C32.0440041,15.7519969 32.456,14.8720057 32.456,13.736 C32.456,12.1199919 31.1360132,10.8400047 28.496,9.896 C27.8399967,9.67199888 27.3280018,9.44800112 26.96,9.224 C26.5919982,8.99999888 26.4000001,8.75200136 26.384,8.48 C26.384,8.12799824 26.5519983,7.8320012 26.888,7.592 C27.2240017,7.3519988 27.6399975,7.232 28.136,7.232 C28.6800027,7.232 29.1879976,7.29999932 29.66,7.436 C30.1320024,7.57200068 30.6479972,7.76799872 31.208,8.024 L32.048,6.2 C31.5359974,5.84799824 30.9000038,5.56800104 30.14,5.36 C29.3799962,5.15199896 28.7280027,5.048 28.184,5.048 C26.8079931,5.048 25.720004,5.35599692 24.92,5.972 C24.119996,6.58800308 23.72,7.43199464 23.72,8.504 C23.72,10.0400077 24.9999872,11.2239958 27.56,12.056 C29.0960077,12.5520025 29.864,13.1519965 29.864,13.856 C29.864,14.2400019 29.6480022,14.5439989 29.216,14.768 C28.7839978,14.9920011 28.264003,15.104 27.656,15.104 C26.6959952,15.104 25.6640055,14.8400026 24.56,14.312 L23.744,16.184 C24.2240024,16.5360018 24.8519961,16.811999 25.628,17.012 L25.628,17.012 Z M44.056,14.384 C43.5599975,15.3120046 42.8560046,16.0319974 41.944,16.544 C41.0319954,17.0560026 39.9680061,17.312 38.752,17.312 C37.5359939,17.312 36.4800045,17.0560026 35.584,16.544 C34.6879955,16.0319974 33.9960024,15.3160046 33.508,14.396 C33.0199976,13.4759954 32.776,12.4000062 32.776,11.168 C32.776,9.95199392 33.0199976,8.8840046 33.508,7.964 C33.9960024,7.0439954 34.6959954,6.32800256 35.608,5.816 C36.5200046,5.30399744 37.5839939,5.048 38.8,5.048 C40.0160061,5.048 41.0759955,5.29999748 41.98,5.804 C42.8840045,6.30800252 43.5799976,7.02399536 44.068,7.952 C44.5560024,8.88000464 44.8,9.95199392 44.8,11.168 C44.8,12.3840061 44.5520025,13.4559954 44.056,14.384 L44.056,14.384 Z M50.64,8.12 C51.4080038,7.719998 52.0799971,7.52 52.656,7.52 L52.104,5.36 C51.5439972,5.36 50.8920037,5.559998 50.148,5.96 C49.4039963,6.360002 48.7440029,6.7999976 48.168,7.28 L47.28,5.36 L45.84,5.36 L45.84,17 L48.528,17 L48.528,9.584 C49.1680032,9.00799712 49.8719962,8.520002 50.64,8.12 L50.64,8.12 Z M60.152,14.792 C59.6719976,14.9200006 59.136003,14.984 58.544,14.984 C57.5679951,14.984 56.7880029,14.6320035 56.204,13.928 C55.6199971,13.2239965 55.328,12.3040057 55.328,11.168 C55.3440001,10.0639945 55.651997,9.1520036 56.252,8.432 C56.852003,7.7119964 57.6319952,7.352 58.592,7.352 C59.1520028,7.352 59.6679976,7.41599936 60.14,7.544 C60.6120024,7.67200064 61.1599969,7.87199864 61.784,8.144 L62.552,6.224 C62.0559975,5.87199824 61.408004,5.58800108 60.608,5.372 C59.807996,5.15599892 59.1360027,5.048 58.592,5.048 C57.3759939,5.048 56.3120046,5.30399744 55.4,5.816 C54.4879954,6.32800256 53.7880024,7.0439954 53.3,7.964 C52.8119976,8.8840046 52.568,9.95199392 52.568,11.168 C52.568,12.4000062 52.8119976,13.4759954 53.3,14.396 C53.7880024,15.3160046 54.4799955,16.0319974 55.376,16.544 C56.2720045,17.0560026 57.3279939,17.312 58.544,17.312 C59.1040028,17.312 59.783996,17.208001 60.584,17 C61.384004,16.791999 62.0319975,16.5120018 62.528,16.16 L61.736,14.192 C61.1599971,14.4640014 60.6320024,14.6639994 60.152,14.792 L60.152,14.792 Z M72.376,6.752 C71.4959956,5.61599432 70.2000086,5.048 68.488,5.048 C67.3199942,5.048 66.3080043,5.30399744 65.452,5.816 C64.5959957,6.32800256 63.9400023,7.0439954 63.484,7.964 C63.0279977,8.8840046 62.8,9.95199392 62.8,11.168 C62.8,13.0560094 63.3559944,14.5479945 64.468,15.644 C65.5800056,16.7400055 67.1919894,17.288 69.304,17.288 C70.8720078,17.288 72.3039935,16.8400045 73.6,15.944 L72.784,13.976 C72.0959966,14.3280018 71.5080024,14.5879992 71.02,14.756 C70.5319976,14.9240008 69.9760031,15.008 69.352,15.008 C67.1119888,15.008 65.8720012,13.9680104 65.632,11.888 L73.696,11.888 L73.696,11.096 C73.696,9.3359912 73.2560044,7.88800568 72.376,6.752 L72.376,6.752 Z M66.556,8.072 C67.0280024,7.5919976 67.6479962,7.352 68.416,7.352 C69.1680038,7.352 69.7679978,7.58399768 70.216,8.048 C70.6640022,8.51200232 70.9599993,9.19199552 71.104,10.088 L65.68,10.088 C65.7920006,9.22399568 66.0839976,8.5520024 66.556,8.072 L66.556,8.072 Z M79.536,8.12 C80.3040038,7.719998 80.9759971,7.52 81.552,7.52 L81,5.36 C80.4399972,5.36 79.7880037,5.559998 79.044,5.96 C78.2999963,6.360002 77.6400029,6.7999976 77.064,7.28 L76.176,5.36 L74.736,5.36 L74.736,17 L77.424,17 L77.424,9.584 C78.0640032,9.00799712 78.7679962,8.520002 79.536,8.12 L79.536,8.12 Z M83.588,19.196 C83.1159976,19.4920015 82.4880039,19.8079983 81.704,20.144 L82.64,22.304 C83.632005,22.0799989 84.5399959,21.6560031 85.364,21.032 C86.1880041,20.4079969 86.7599984,19.6720042 87.08,18.824 L92.264,5.36 L89.432,5.36 L86.624,13.088 L83.648,4.928 L81.032,5.792 L85.16,16.448 L84.56,18.032 C84.3839991,18.5120024 84.0600024,18.8999985 83.588,19.196 Z M39.7523938,10.2866151 L40.9829359,10.2866151 L40.9829359,9.31433495 L40.2689177,9.08645678 C40.4967958,8.76742735 40.6183308,8.37243852 40.6183308,7.9774497 C40.6183308,6.94440201 39.7979694,6.2 38.6585786,6.2 C37.5191878,6.2 36.6988264,6.94440201 36.6988264,7.9774497 C36.6988264,8.3876304 36.8203614,8.76742735 37.0482396,9.08645678 L36.3494132,9.31433495 L36.3494132,10.2866151 L37.5799553,10.2866151 C37.488804,11.426006 37.0330477,12.3830943 36.0911513,13.4465257 L36,13.5528689 L36,15.4670455 L41.347541,15.4670455 L41.347541,13.537677 L41.2411978,13.4465257 C40.2993014,12.3982861 39.8283532,11.4411978 39.7523938,10.2866151 Z" id="Resorcery" fill="#FFFFFF" sketch:type="MSShapeGroup"></path>
    </g>
</svg>